<?xml version="1.0" encoding="utf-8"?>
<!-- Generator: Adobe Illustrator 19.1.0, SVG Export Plug-In . SVG Version: 6.00 Build 0)  -->
<svg version="1.1" id="Layer_1" xmlns="http://www.w3.org/2000/svg" xmlns:xlink="http://www.w3.org/1999/xlink" x="0px" y="0px"
	 viewBox="0 0 29.6 33.4" style="enable-background:new 0 0 29.6 33.4;" xml:space="preserve">
<style type="text/css">
	.st0{fill:#B74776;}
</style>
<g>
	<g>
		<g>
			<g>
				<path class="st0" d="M29.1,33.4H2.2c-0.3,0-0.5-0.2-0.5-0.5V13.7c0-0.3,0.2-0.5,0.5-0.5h26.9c0.3,0,0.5,0.2,0.5,0.5v19.2
					C29.6,33.2,29.4,33.4,29.1,33.4z M2.7,32.4h25.9V14.2H2.7V32.4z"/>
			</g>
			<g>
				<path class="st0" d="M2.2,14.2c-0.2,0-0.4-0.1-0.5-0.4L0,7.7c0-0.1,0-0.3,0-0.4c0.1-0.1,0.2-0.2,0.3-0.2l26.3-7
					c0.3-0.1,0.5,0.1,0.6,0.4L29,6.6c0,0.1,0,0.3,0,0.4c-0.1,0.1-0.2,0.2-0.3,0.2L2.3,14.2C2.3,14.2,2.2,14.2,2.2,14.2z M1.1,7.9
					l1.4,5.2l25.4-6.7l-1.4-5.3L1.1,7.9z"/>
			</g>
			<g>
				<path class="st0" d="M29.1,20.3H2.2c-0.3,0-0.5-0.2-0.5-0.5c0-0.3,0.2-0.5,0.5-0.5h26.9c0.3,0,0.5,0.2,0.5,0.5
					C29.6,20.1,29.4,20.3,29.1,20.3z"/>
			</g>
		</g>
		<g>
			<path class="st0" d="M2.2,20.2c-0.1,0-0.3,0-0.4-0.1c-0.2-0.2-0.2-0.5,0-0.7l6.1-6c0.2-0.2,0.5-0.2,0.7,0c0.2,0.2,0.2,0.5,0,0.7
				l-6.1,6C2.4,20.1,2.3,20.2,2.2,20.2z"/>
		</g>
		<g>
			<path class="st0" d="M9.1,20.2c-0.1,0-0.3,0-0.4-0.1c-0.2-0.2-0.2-0.5,0-0.7l6.1-6c0.2-0.2,0.5-0.2,0.7,0c0.2,0.2,0.2,0.5,0,0.7
				l-6.1,6C9.4,20.1,9.2,20.2,9.1,20.2z"/>
		</g>
		<g>
			<path class="st0" d="M16,20.2c-0.1,0-0.3,0-0.4-0.1c-0.2-0.2-0.2-0.5,0-0.7l6.1-6c0.2-0.2,0.5-0.2,0.7,0c0.2,0.2,0.2,0.5,0,0.7
				l-6.1,6C16.3,20.1,16.2,20.2,16,20.2z"/>
		</g>
		<g>
			<path class="st0" d="M23,20.2c-0.1,0-0.3,0-0.4-0.1c-0.2-0.2-0.2-0.5,0-0.7l6.1-6c0.2-0.2,0.5-0.2,0.7,0c0.2,0.2,0.2,0.5,0,0.7
				l-6.1,6C23.2,20.1,23.1,20.2,23,20.2z"/>
		</g>
		<g>
			<g>
				<path class="st0" d="M2.2,13.9c-0.1,0-0.2,0-0.3-0.1c-0.2-0.1-0.3-0.5-0.2-0.7l4.5-7.3c0.1-0.2,0.5-0.3,0.7-0.2
					c0.2,0.1,0.3,0.5,0.2,0.7l-4.5,7.3C2.5,13.8,2.4,13.9,2.2,13.9z"/>
			</g>
			<g>
				<path class="st0" d="M8.9,12.2c-0.1,0-0.2,0-0.3-0.1c-0.2-0.1-0.3-0.5-0.2-0.7L13,4.1c0.1-0.2,0.5-0.3,0.7-0.2
					c0.2,0.1,0.3,0.5,0.2,0.7L9.3,12C9.2,12.1,9.1,12.2,8.9,12.2z"/>
			</g>
			<g>
				<path class="st0" d="M15.6,10.5c-0.1,0-0.2,0-0.3-0.1c-0.2-0.1-0.3-0.5-0.2-0.7l4.5-7.3c0.1-0.2,0.5-0.3,0.7-0.2
					c0.2,0.1,0.3,0.5,0.2,0.7l-4.5,7.3C16,10.4,15.8,10.5,15.6,10.5z"/>
			</g>
			<g>
				<path class="st0" d="M22.4,8.8c-0.1,0-0.2,0-0.3-0.1c-0.2-0.1-0.3-0.5-0.2-0.7l4.5-7.3c0.1-0.2,0.5-0.3,0.7-0.2
					c0.2,0.1,0.3,0.5,0.2,0.7l-4.5,7.3C22.7,8.8,22.5,8.8,22.4,8.8z"/>
			</g>
		</g>
	</g>
</g>
</svg>
